<svg width="286" height="93" viewBox="0 0 286 93" fill="none" xmlns="http://www.w3.org/2000/svg">
<g clip-path="url(#clip0_213_595)">
<path d="M278.379 51.2775C278.298 50.5413 278.186 49.517 278.09 48.2367C277.978 46.9404 277.865 45.612 277.769 44.2037C277.657 42.8113 277.56 41.467 277.48 40.1706C277.4 38.8743 277.352 37.85 277.352 37.0498H277.095C277.095 37.834 277.047 38.8743 276.967 40.1706C276.887 41.467 276.79 42.7953 276.71 44.2037C276.63 45.596 276.517 46.9404 276.389 48.2367C276.261 49.533 276.165 50.5413 276.132 51.2775L275.667 56.2548H278.892L278.427 51.2775H278.379ZM280.079 69.8903L279.229 61.6962H275.218L274.432 69.8903H268.591L273.581 23.0942H280.801L285.984 69.8903H280.063H280.079ZM259.269 28.3436V43.0194H260.842C261.066 43.0194 261.227 42.9714 261.339 42.8593C261.451 42.7473 261.499 42.4752 261.499 42.0431V29.3998C261.499 28.9997 261.467 28.7277 261.403 28.5836C261.339 28.4236 261.146 28.3596 260.842 28.3596H259.269V28.3436ZM259.269 48.1407V64.721H261.114C261.644 64.721 261.901 64.3689 261.901 63.6647V49.181C261.901 48.4768 261.644 48.1247 261.114 48.1247H259.269V48.1407ZM252.771 69.9063V23.0942H260.521C263.152 23.0942 264.997 23.5583 266.072 24.5026C267.147 25.4468 267.677 27.0312 267.677 29.2558V40.7308C267.677 41.9151 267.452 42.8593 267.019 43.5795C266.586 44.2997 265.992 44.7958 265.238 45.0519V45.308C266.12 45.564 266.858 46.0762 267.468 46.8444C268.078 47.6125 268.383 48.8929 268.383 50.6853V63.2006C268.383 65.7292 267.821 67.4897 266.714 68.4499C265.591 69.4102 263.73 69.8903 261.098 69.8903H252.755L252.771 69.9063ZM244.107 69.9063V23.0942H250.605V69.8903H244.107V69.9063ZM235.571 69.9063V49.9171H232.94V69.9063H226.441V23.0942H232.94V44.4597H235.571V23.0942H241.941V69.8903H235.571V69.9063ZM225.078 63.9368C225.078 64.817 224.949 65.6332 224.676 66.4014C224.42 67.1696 223.97 67.8418 223.329 68.4339C222.687 69.0261 221.885 69.4902 220.89 69.8423C219.911 70.1944 218.692 70.3704 217.248 70.3704C214.408 70.3704 212.434 69.6662 211.359 68.2739C210.284 66.8815 209.755 64.961 209.755 62.5124V53.8542H215.996V63.5527C215.996 64.1608 216.125 64.5609 216.365 64.769C216.606 64.961 216.927 65.0571 217.312 65.0571C218.194 65.0571 218.628 64.5609 218.628 63.5527V56.8629C218.628 55.9827 218.595 55.2625 218.531 54.6704C218.467 54.0782 218.371 53.5501 218.242 53.102C218.114 52.6378 217.922 52.2057 217.681 51.7896C217.44 51.3735 217.151 50.8614 216.798 50.2532C215.788 48.6368 214.889 47.3085 214.071 46.2522C213.253 45.1959 212.611 44.2357 212.129 43.3715C211.568 42.4112 211.103 41.3069 210.75 40.0586C210.397 38.8103 210.22 37.1619 210.22 35.1133V28.6957C210.22 26.7272 210.91 25.2388 212.29 24.1985C213.67 23.1742 215.499 22.6621 217.777 22.6621C219.879 22.6621 221.58 23.1902 222.863 24.2625C224.163 25.3348 224.805 27.2233 224.805 29.928V37.594H218.756V29.3998C218.756 28.8397 218.66 28.4556 218.467 28.2476C218.275 28.0555 218.002 27.9595 217.649 27.9595C216.863 27.9595 216.461 28.3916 216.461 29.2718V35.0973C216.461 36.7137 216.638 37.93 216.991 38.7623C217.344 39.5945 217.841 40.4907 218.499 41.451C218.9 42.0111 219.317 42.6193 219.751 43.2594C220.184 43.8996 220.617 44.5077 221.034 45.0999C221.451 45.6921 221.82 46.2362 222.157 46.7323C222.478 47.2285 222.767 47.6446 222.976 47.9486C224.372 50.2692 225.078 53.23 225.078 56.8629V63.9368ZM196.903 30.7122C196.903 29.0478 196.694 27.8635 196.277 27.1433C195.86 26.4231 195.09 26.055 193.951 26.055C192.811 26.055 192.073 26.4711 191.624 27.3033C191.159 28.1355 190.934 29.7679 190.934 32.2166V60.3358C190.934 61.6482 191.014 62.7365 191.159 63.6167C191.319 64.4969 191.528 65.1691 191.784 65.6492C192.041 66.1293 192.378 66.4654 192.763 66.6575C193.164 66.8495 193.598 66.9455 194.079 66.9455C195.346 66.9455 196.213 66.4494 196.678 65.4411C197.143 64.4329 197.368 62.8485 197.368 60.6559V50.0452H192.699V47.1004H201.299V69.9063H197.625V68.4019H197.368C196.887 69.0101 196.261 69.4902 195.491 69.8423C194.721 70.1944 193.822 70.3704 192.763 70.3704C190.661 70.3704 189.121 69.5862 188.158 68.0178C187.196 66.4494 186.714 63.8887 186.714 60.3518V32.2166C186.714 30.4721 186.843 28.9837 187.083 27.7674C187.324 26.5511 187.725 25.5429 188.303 24.7907C188.864 24.0225 189.602 23.4783 190.501 23.1582C191.399 22.8382 192.49 22.6621 193.758 22.6621C196.261 22.6621 198.09 23.2863 199.245 24.5346C200.401 25.7829 200.994 27.8474 200.994 30.7282V39.7065H196.919V30.7282L196.903 30.7122ZM179.959 69.9063L173.317 39.9626H173.06V69.9063H169.113V23.0942H173.253L178.965 50.4933H179.221V23.0942H183.361V69.8903H179.943L179.959 69.9063ZM161.379 69.9063V23.0942H165.647V69.8903H161.379V69.9063ZM157.978 23.1102V69.9063H153.902V50.1732C153.902 49.0369 153.903 47.8206 153.935 46.5403C153.951 45.2439 154.015 44.1076 154.095 43.0994H153.838C153.79 43.5795 153.758 44.1236 153.71 44.7318C153.662 45.34 153.614 45.9641 153.55 46.6043C153.485 47.2445 153.405 47.8686 153.325 48.5088C153.245 49.1489 153.164 49.6771 153.132 50.1092L150.437 69.9063H147.613L144.982 49.9812C144.805 48.7168 144.661 47.5005 144.548 46.3482C144.436 45.1959 144.34 44.1076 144.26 43.0994H144.003C144.083 44.1557 144.147 45.324 144.163 46.6043C144.179 47.9006 144.195 49.0689 144.195 50.1092V69.9063H140.184V23.0942H144.982L148.142 46.9564C148.191 47.3565 148.255 47.8686 148.335 48.5248C148.415 49.181 148.495 49.8851 148.56 50.6213C148.624 51.3575 148.704 52.1097 148.784 52.8459C148.864 53.5821 148.945 54.2383 148.977 54.8144H149.233C149.233 54.5903 149.266 54.1582 149.33 53.5021C149.394 52.8459 149.474 52.1257 149.554 51.3415C149.635 50.5573 149.731 49.7571 149.811 48.9569C149.891 48.1407 149.988 47.4845 150.068 46.9564L153.148 23.0942H157.946L157.978 23.1102ZM131.247 47.6286C131.023 46.0121 130.846 44.3477 130.686 42.6513C130.525 40.9548 130.413 39.4024 130.317 37.9941H130.06C129.98 39.3864 129.835 40.9388 129.659 42.6513C129.482 44.3477 129.29 46.0121 129.065 47.6286L127.749 57.263H132.483L131.231 47.6286H131.247ZM133.028 60.7359H127.38L126.193 69.9063H122.053L128.423 23.1102H131.905L138.467 69.9063H134.199L133.012 60.7359H133.028ZM116.021 30.7122C116.021 29.0478 115.812 27.8635 115.395 27.1433C114.978 26.4231 114.207 26.055 113.068 26.055C111.929 26.055 111.191 26.4711 110.742 27.3033C110.276 28.1355 110.052 29.7679 110.052 32.2166V60.3358C110.052 61.6482 110.132 62.7365 110.276 63.6167C110.437 64.4969 110.646 65.1691 110.902 65.6492C111.159 66.1293 111.496 66.4654 111.881 66.6575C112.282 66.8495 112.715 66.9455 113.197 66.9455C114.464 66.9455 115.331 66.4494 115.796 65.4411C116.261 64.4329 116.486 62.8485 116.486 60.6559V50.0452H111.817V47.1004H120.417V69.9063H116.743V68.4019H116.486C116.004 69.0101 115.379 69.4902 114.609 69.8423C113.838 70.1944 112.94 70.3704 111.881 70.3704C109.779 70.3704 108.239 69.5862 107.276 68.0178C106.313 66.4494 105.832 63.8887 105.832 60.3518V32.2166C105.832 30.4721 105.96 28.9837 106.201 27.7674C106.442 26.5511 106.843 25.5429 107.42 24.7907C107.982 24.0225 108.72 23.4783 109.619 23.1582C110.517 22.8382 111.608 22.6621 112.876 22.6621C115.379 22.6621 117.208 23.2863 118.363 24.5346C119.518 25.7829 120.112 27.8474 120.112 30.7282V39.7065H116.037V30.7282L116.021 30.7122Z" fill="white"/>
<path fill-rule="evenodd" clip-rule="evenodd" d="M44.6048 4.0166C69.2337 4.0166 89.2095 23.9417 89.2095 48.5081C89.2095 73.0744 69.2337 92.9996 44.6048 92.9996C19.9759 92.9996 0 73.0744 0 48.5081C0 23.9417 19.9759 4.0166 44.6048 4.0166Z" fill="white"/>
<path d="M75.8119 31.5917C77.1918 27.9107 77.9138 23.7177 77.978 19.8287C77.978 19.3805 77.978 18.9484 77.978 18.5163C74.3037 14.1952 69.8111 10.5943 64.741 7.93759C61.5641 11.2024 59.1734 15.3795 56.9592 19.4446C49.017 17.0279 40.6095 16.9959 32.6512 19.3325H32.571L32.2501 19.4446C29.9396 15.2035 27.4206 10.8183 24.0351 7.52148C19.2216 9.9221 14.9216 13.1549 11.2955 17.0439C11.2313 17.9562 11.2152 18.8844 11.2313 19.8447C11.2955 23.7497 12.0175 27.9428 13.3973 31.6237C11.0548 34.3764 9.14544 37.4172 7.79767 40.666C5.26258 46.7316 4.63683 53.4693 6.54617 60.2391C8.32715 66.5287 12.2902 72.8023 18.9649 78.5318C25.5754 84.1973 35.1061 87.046 44.6046 87.046C54.1032 87.046 63.6339 84.2133 70.2443 78.5318C76.919 72.8023 80.8821 66.5287 82.6631 60.2391C84.5724 53.4693 83.9467 46.7316 81.4116 40.666C80.0478 37.4172 78.1545 34.3764 75.7959 31.6237" fill="#E6E6E6"/>
<path d="M43.8345 12.7549H45.3909C54.2798 12.9309 62.4466 15.8437 68.9287 20.4689C74.5444 24.4699 78.9247 29.7993 81.4277 35.8008C83.9628 41.8664 84.5885 48.6041 82.6792 55.3739C80.8982 61.6635 76.9351 67.9371 70.2605 73.6666C63.65 79.3321 54.1193 82.1808 44.6207 82.1808C35.1222 82.1808 25.5915 79.3481 18.981 73.6666C12.3063 67.9371 8.34326 61.6635 6.56228 55.3739C4.65294 48.6041 5.27869 41.8664 7.81378 35.8008C10.3168 29.7993 14.697 24.4859 20.3127 20.4689C26.7949 15.8437 34.9617 12.9469 43.8506 12.7549H43.8345ZM44.6047 15.2355C44.364 15.2355 44.1233 15.2355 43.8666 15.2355C14.4082 15.8437 -6.73893 48.284 20.6016 71.7621C32.8598 82.2928 56.3495 82.2928 68.6078 71.7621C95.9483 48.284 74.8012 15.8437 45.3428 15.2355C45.1021 15.2355 44.8614 15.2355 44.6047 15.2355Z" fill="white"/>
<path fill-rule="evenodd" clip-rule="evenodd" d="M44.6046 15.2363C44.3639 15.2363 44.1232 15.2363 43.8665 15.2363C14.4081 15.8445 -6.73904 48.2849 20.5854 71.7629C32.8437 82.2936 56.3334 82.2936 68.5917 71.7629C95.9322 48.2849 74.785 15.8445 45.3266 15.2363C45.0859 15.2363 44.8453 15.2363 44.5885 15.2363" fill="#FB9023"/>
<path fill-rule="evenodd" clip-rule="evenodd" d="M64.8854 74.4506C66.2171 73.6504 67.4686 72.7541 68.6078 71.7619C77.978 63.7118 81.6523 54.6055 81.2512 46.0913C81.2351 45.7872 81.2191 45.4671 81.187 45.147V45.099C79.6306 49.7722 77.3362 54.0613 74.4802 57.8063C74.5604 58.5585 74.5284 59.3267 74.416 60.0949C74.1593 65.0081 70.3727 70.3375 64.8854 74.4346M15.1623 57.9503C12.3063 54.2054 9.57867 49.7562 8.03836 45.083C7.28426 53.8693 10.8783 63.3757 20.6015 71.7459C21.2112 72.274 21.853 72.7701 22.5108 73.2343C18.1145 69.5373 15.3067 65.0722 14.9537 60.8311C14.713 59.8068 15.066 58.9426 15.1623 57.9503Z" fill="#E95F05"/>
<path fill-rule="evenodd" clip-rule="evenodd" d="M8.64844 41.2267C26.0732 13.2194 27.4851 26.7109 46.2897 20.3413C63.2973 15.524 76.5664 32.7605 81.075 44.1234C79.1657 28.6634 63.907 15.62 45.3431 15.252C45.1024 15.252 44.8617 15.252 44.605 15.252C44.3643 15.252 44.1237 15.252 43.867 15.252C38.6684 15.364 33.7426 16.4523 29.2822 18.3087C18.8048 22.6779 10.9749 31.2881 8.64844 41.2267Z" fill="#FFB323"/>
<path fill-rule="evenodd" clip-rule="evenodd" d="M44.6045 39.3223C44.6045 39.3223 44.5243 39.3223 44.4922 39.3223C43.3049 39.3703 42.1497 40.0585 41.3795 40.8907C36.5981 46.108 36.9993 45.1478 29.3459 46.7002C3.06435 52.0455 17.2962 68.7859 32.0735 77.8442C40.0157 80.2608 49.2094 80.2608 57.1516 77.8442C71.929 68.7859 86.1608 52.0295 59.8793 46.7002C52.2098 45.1478 52.627 46.092 47.8456 40.8907C47.0755 40.0425 45.9202 39.3703 44.7329 39.3223C44.7008 39.3223 44.6527 39.3223 44.6206 39.3223" fill="#E08207"/>
<path fill-rule="evenodd" clip-rule="evenodd" d="M44.6046 40.1543C44.6046 40.1543 44.5244 40.1543 44.4923 40.1543C43.305 40.2023 42.1498 40.8905 41.3796 41.7227C36.5982 46.94 36.9993 45.9798 29.3459 47.5322C10.6697 51.3252 12.0817 64.4806 22.5108 73.2348C33.9187 81.3649 52.7554 81.765 64.9014 74.4351C76.4537 65.8089 80.4649 51.7093 59.8954 47.5322C52.2259 45.9798 52.6431 46.924 47.8617 41.7227C47.0916 40.8745 45.9363 40.2023 44.749 40.1543C44.7169 40.1543 44.6688 40.1543 44.6367 40.1543" fill="white"/>
<path fill-rule="evenodd" clip-rule="evenodd" d="M27.1802 41.2589C27.2444 42.5873 28.2552 43.7396 29.6671 43.9956C31.5283 44.3317 34.0795 43.5475 36.0209 44.0116C37.3045 44.3157 37.8019 44.1236 37.4649 42.6833C37.0799 41.1149 35.7161 39.2584 34.0313 38.3942C31.5123 37.0978 27.0518 38.2181 27.1962 41.2429" fill="#E08207"/>
<path fill-rule="evenodd" clip-rule="evenodd" d="M45.1665 51.7257L49.4184 47.8047C50.1565 49.2291 49.0815 52.3499 47.0277 53.4221C48.6803 55.7587 51.1031 54.2704 53.2852 52.782C54.5046 51.9498 55.2748 51.6777 56.5423 51.6137C55.3229 52.1418 54.1516 52.958 53.4617 53.5342C51.8412 54.8945 50.1886 56.2869 48.0706 55.7267C47.3807 55.5507 46.5945 54.9265 46.0008 53.9663C45.6158 53.3421 45.3109 52.5899 45.1825 51.7257" fill="#D7D7FF"/>
<path fill-rule="evenodd" clip-rule="evenodd" d="M27.4688 40.4259C27.5329 41.7542 28.5438 42.9065 29.9557 43.1626C31.8169 43.4987 34.368 42.7145 36.3095 43.1786C37.5931 43.4827 38.0905 43.2906 37.7535 41.8503C37.3684 40.2819 36.0046 38.4254 34.3199 37.5612C31.8009 36.2648 27.3404 37.3851 27.4848 40.4099" fill="black"/>
<path fill-rule="evenodd" clip-rule="evenodd" d="M43.8827 51.7257L39.6308 47.8047C38.9087 49.2131 39.9838 52.2858 42.0215 53.4221C40.3688 55.7587 37.9461 54.2704 35.7639 52.782C34.5445 51.9498 33.7744 51.6777 32.5068 51.6137C33.7262 52.1418 34.8975 52.958 35.5875 53.5342C37.208 54.8945 38.8606 56.2869 40.9785 55.7267C41.6685 55.5507 42.4547 54.9265 43.0483 53.9663C43.4334 53.3421 43.7383 52.5899 43.8666 51.7257" fill="#D7D7FF"/>
<path fill-rule="evenodd" clip-rule="evenodd" d="M34.5926 40.0418C35.106 39.9777 35.6355 40.1858 36.0045 40.5539C36.5501 41.082 36.6624 41.8342 35.6034 41.6262C35.2023 41.5461 34.7209 41.3701 34.384 41.1941C33.5015 40.7779 33.8224 40.1378 34.5926 40.0418Z" fill="white"/>
<path fill-rule="evenodd" clip-rule="evenodd" d="M34.6089 36.6022C36.8712 36.3782 38.2832 38.5067 37.9944 40.4112C37.5932 38.8748 36.454 37.4184 34.6089 36.6022Z" fill="black"/>
<path fill-rule="evenodd" clip-rule="evenodd" d="M28.6242 54.5583C26.9235 51.9496 28.3033 49.8851 31.4321 50.3172C29.3463 50.8933 28.2231 52.3817 28.6242 54.5583Z" fill="#11035E"/>
<path d="M44.5248 54.5735C44.5248 54.5735 44.605 54.7175 44.6531 54.7815C45.4714 56.0779 46.6106 56.9421 47.6535 57.2302C50.5577 57.9984 52.5151 56.3499 54.4566 54.7175C56.9596 52.605 59.7674 50.8765 60.4734 52.9731C60.4734 52.1728 60.1044 51.6127 59.6551 51.3566C58.0025 50.3804 54.7775 52.4129 53.4457 53.5332C51.8252 54.8936 50.1726 56.2859 48.0547 55.7258C47.3647 55.5497 46.5785 54.9256 45.9849 53.9653C45.4714 53.1331 45.1024 52.0608 45.1024 50.8125H43.9472C43.9472 52.0608 43.5942 53.1331 43.0647 53.9653C42.471 54.9256 41.6848 55.5497 40.9949 55.7258C38.877 56.2859 37.2244 54.8936 35.6038 53.5332C34.2721 52.4129 31.0471 50.3804 29.3945 51.3566C28.9452 51.6127 28.5762 52.1728 28.5762 52.9731C29.2821 50.8765 32.09 52.605 34.593 54.7175C36.5184 56.3499 38.4759 57.9984 41.396 57.2302C42.4389 56.9581 43.5942 56.0779 44.3964 54.7815C44.4446 54.7175 44.4766 54.6375 44.5248 54.5735Z" fill="#11035E"/>
<path fill-rule="evenodd" clip-rule="evenodd" d="M60.425 54.5583C62.1258 51.9496 60.7459 49.8851 57.6172 50.3172C59.703 50.8933 60.8262 52.3817 60.425 54.5583Z" fill="#11035E"/>
<path fill-rule="evenodd" clip-rule="evenodd" d="M42.0698 58.9746C43.209 62.1754 45.8885 62.1914 47.14 58.9746C45.5837 60.319 43.578 60.319 42.0698 58.9746Z" fill="#CFCFFF"/>
<path fill-rule="evenodd" clip-rule="evenodd" d="M38.668 57.2619C39.8232 57.8541 41.3475 58.3662 42.8878 57.646C44.6527 56.8138 45.1982 57.326 46.4016 57.694C47.9259 58.1742 49.2736 57.8381 50.3807 57.2619C49.5624 57.47 48.6639 57.502 47.6531 57.2299C46.6102 56.9579 45.455 56.0776 44.6527 54.7813C44.6046 54.7173 44.5725 54.6373 44.5243 54.5732C44.5243 54.5732 44.4441 54.7173 44.396 54.7813C43.5777 56.0776 42.4385 56.9419 41.3956 57.2299C40.3848 57.502 39.4863 57.47 38.668 57.2619Z" fill="#CFCFFF"/>
<path fill-rule="evenodd" clip-rule="evenodd" d="M41.5562 58.4307C42.936 61.4074 46.145 61.4074 47.6372 58.4307C45.776 59.679 43.3532 59.679 41.5562 58.4307Z" fill="#11035E"/>
<path fill-rule="evenodd" clip-rule="evenodd" d="M62.2383 41.2589C62.1741 42.5873 61.1633 43.7396 59.7513 43.9956C57.8901 44.3317 55.339 43.5475 53.3976 44.0116C52.114 44.3157 51.6166 44.1236 51.9535 42.6833C52.3386 41.1149 53.7024 39.2584 55.3871 38.3942C57.9062 37.0978 62.3667 38.2181 62.2222 41.2429" fill="#E08207"/>
<path fill-rule="evenodd" clip-rule="evenodd" d="M61.9492 40.4259C61.8851 41.7542 60.8742 42.9065 59.4623 43.1626C57.6011 43.4987 55.0499 42.7145 53.1085 43.1786C51.8249 43.4827 51.3275 43.2906 51.6645 41.8503C52.0495 40.2819 53.4134 38.4254 55.0981 37.5612C57.6171 36.2648 62.0776 37.3851 61.9332 40.4099" fill="black"/>
<path fill-rule="evenodd" clip-rule="evenodd" d="M54.8253 40.0418C54.3119 39.9777 53.7824 40.1858 53.4134 40.5539C52.8679 41.082 52.7555 41.8342 53.8145 41.6262C54.2156 41.5461 54.697 41.3701 55.0339 41.1941C55.9164 40.7779 55.5955 40.1378 54.8253 40.0418Z" fill="white"/>
<path fill-rule="evenodd" clip-rule="evenodd" d="M54.8095 36.6022C52.5472 36.3782 51.1352 38.5067 51.424 40.4112C51.8252 38.8748 52.9643 37.4184 54.8095 36.6022Z" fill="black"/>
<path fill-rule="evenodd" clip-rule="evenodd" d="M28.4635 39.4655C28.7523 38.7773 29.4261 38.2492 30.1642 38.0412C31.2392 37.7371 32.2982 38.1532 31.2392 39.3375C30.8381 39.7856 30.2444 40.2657 29.7952 40.5858C28.6079 41.402 28.0142 40.5218 28.4635 39.4655Z" fill="#00298F"/>
<path fill-rule="evenodd" clip-rule="evenodd" d="M60.9386 39.4655C60.6498 38.7773 59.9759 38.2492 59.2378 38.0412C58.1628 37.7371 57.1039 38.1532 58.1628 39.3375C58.564 39.7856 59.1416 40.2657 59.6069 40.5858C60.7942 41.402 61.3879 40.5218 60.9386 39.4655Z" fill="#00298F"/>
<path fill-rule="evenodd" clip-rule="evenodd" d="M30.437 44.6679C28.303 45.4681 26.3936 43.7717 26.1851 41.8672C26.9713 43.2595 28.4474 44.3638 30.437 44.6679Z" fill="#11035E"/>
<path fill-rule="evenodd" clip-rule="evenodd" d="M32.4911 28.0553C34.8817 27.3831 37.6254 28.0073 39.6471 29.4636C42.6314 31.6082 43.7546 35.1451 38.54 34.905C36.5665 34.809 34.1116 34.2969 32.3627 33.7687C27.806 32.3924 28.8649 29.0795 32.4911 28.0553Z" fill="#E08207"/>
<path fill-rule="evenodd" clip-rule="evenodd" d="M56.9432 28.0553C54.5525 27.3831 51.8088 28.0073 49.7872 29.4636C46.8028 31.6082 45.6797 35.1451 50.8943 34.905C52.8678 34.809 55.3227 34.2969 57.0715 33.7687C61.6283 32.3924 60.5693 29.0795 56.9432 28.0553Z" fill="#E08207"/>
<path fill-rule="evenodd" clip-rule="evenodd" d="M32.4911 26.9342C34.8817 26.262 37.6254 26.8862 39.6471 28.3425C42.6314 30.4871 43.7546 34.024 38.54 33.7839C36.5665 33.6879 34.1116 33.1758 32.3627 32.6476C27.806 31.2713 28.8649 27.9584 32.4911 26.9342Z" fill="white"/>
<path d="M14.3924 29.0952C12.3547 24.9182 11.3118 19.7488 11.2315 14.9956C11.1513 10.0503 12.1461 5.45714 14.2159 2.75244C15.8525 0.59188 17.5853 -0.128306 19.3342 0.0157313C20.9387 0.159768 22.3506 1.072 23.6503 2.28832C27.5331 5.92126 30.2768 10.9786 32.86 15.7158L33.2451 16.5L31.4802 17.5723C28.8328 12.723 26.0731 7.42564 22.2223 3.82471C20.2327 1.96824 18.1308 1.04 15.8525 4.01676C12.4028 8.52993 12.4349 19.7648 15.9808 27.5908L14.5047 29.3353L14.3924 29.0952Z" fill="white"/>
<path fill-rule="evenodd" clip-rule="evenodd" d="M56.9432 26.9342C54.5525 26.262 51.8088 26.8862 49.7872 28.3425C46.8028 30.4871 45.6797 34.024 50.8943 33.7839C52.8678 33.6879 55.3227 33.1758 57.0715 32.6476C61.6283 31.2713 60.5693 27.9584 56.9432 26.9342Z" fill="white"/>
<path fill-rule="evenodd" clip-rule="evenodd" d="M21.1955 52.6855C23.0727 52.6855 24.597 54.1419 24.597 55.9504C24.597 57.7589 23.0727 59.2152 21.1955 59.2152C19.3182 59.2152 17.7939 57.7589 17.7939 55.9504C17.7939 54.1419 19.3182 52.6855 21.1955 52.6855Z" fill="#E6E6FF"/>
<path fill-rule="evenodd" clip-rule="evenodd" d="M21.7571 59.7119C22.2866 59.7119 22.7198 60.128 22.7198 60.6402C22.7198 61.1523 22.2866 61.5684 21.7571 61.5684C21.2276 61.5684 20.7944 61.1523 20.7944 60.6402C20.7944 60.128 21.2276 59.7119 21.7571 59.7119Z" fill="#E6E6FF"/>
<path fill-rule="evenodd" clip-rule="evenodd" d="M41.8933 51.8524C39.7433 50.076 37.1279 47.1152 41.1392 45.5308C42.2463 45.0987 43.594 44.9226 44.6049 44.8906C45.6157 44.9226 46.9635 45.0987 48.0706 45.5308C52.0818 47.1152 49.4504 50.076 47.3165 51.8524C45.4392 53.4048 43.7866 53.4048 41.9093 51.8524" fill="black"/>
<path fill-rule="evenodd" clip-rule="evenodd" d="M43.2088 46.9409C40.5935 46.2527 41.829 45.6765 44.6208 45.6445C47.4126 45.6765 48.5999 46.2527 45.9846 46.9409C45.0219 47.1969 44.1555 47.1969 43.1928 46.9409" fill="#6666FF"/>
<path fill-rule="evenodd" clip-rule="evenodd" d="M15.4033 56.8462C13.6544 62.0956 16.6708 68.3532 22.5112 73.2505C33.9191 81.3646 52.7397 81.7647 64.8857 74.4508C71.7529 69.3135 75.9567 62.2556 73.919 56.4941C71.1111 65.7445 57.473 75.363 44.4606 74.9789C29.9881 74.5628 17.9544 65.5845 15.4193 56.8302" fill="#D7D7FF"/>
<path fill-rule="evenodd" clip-rule="evenodd" d="M16.2696 28.1821C12.4509 20.3401 12.3225 8.62509 15.8684 3.9999C18.1468 1.02313 20.2487 1.95137 22.2383 3.80785C26.6506 7.93692 29.635 14.2746 32.6193 19.6039C32.523 19.6359 32.4107 19.6679 32.3144 19.7C26.3618 21.0123 20.7782 23.797 16.2696 28.1821Z" fill="#FFB323"/>
<path fill-rule="evenodd" clip-rule="evenodd" d="M18.6281 25.3823C16.0449 16.7241 16.5102 2.7685 21.5803 7.52173C24.2117 9.98637 26.3938 14.8196 28.4155 18.8847C24.7572 20.5651 21.452 22.7737 18.6281 25.3823Z" fill="white"/>
<path fill-rule="evenodd" clip-rule="evenodd" d="M17.9863 8.11445C21.5002 7.57031 25.0782 15.7964 22.5912 22.2141C24.4043 20.9498 26.3618 19.8455 28.4155 18.8852C26.3938 14.8202 24.2117 9.98693 21.5804 7.52229C19.8957 5.93788 18.7083 6.43401 17.9863 8.11445Z" fill="#D7D7FF"/>
<path fill-rule="evenodd" clip-rule="evenodd" d="M25.03 11.7617C25.4953 14.0663 25.4953 16.643 24.7412 19.0116C25.752 18.4354 26.795 17.8913 27.87 17.3952C26.9715 15.5867 26.0248 13.6182 25.0461 11.7617" fill="#ACACE6"/>
<path fill-rule="evenodd" clip-rule="evenodd" d="M72.9401 28.1821C76.7587 20.3401 76.8871 8.62509 73.3412 3.9999C71.0628 1.02313 68.9609 1.95137 66.9714 3.80785C62.559 7.93692 59.5747 14.2746 56.5903 19.6039C56.6866 19.6359 56.7989 19.6679 56.8952 19.7C62.8478 21.0123 68.4315 23.797 72.9401 28.1821Z" fill="#FFB323"/>
<path fill-rule="evenodd" clip-rule="evenodd" d="M70.5974 25.3823C73.1807 16.7241 72.7154 2.7685 67.6452 7.52173C65.0138 9.98637 62.8317 14.8196 60.8101 18.8847C64.4683 20.5651 67.7735 22.7737 70.5974 25.3823Z" fill="white"/>
<path fill-rule="evenodd" clip-rule="evenodd" d="M71.2392 8.11445C67.7254 7.57031 64.1474 15.7964 66.6343 22.2141C64.8213 20.9498 62.8638 19.8455 60.8101 18.8852C62.8317 14.8202 65.0138 9.98693 67.6452 7.52229C69.3299 5.93788 70.5172 6.43401 71.2392 8.11445Z" fill="#D7D7FF"/>
<path fill-rule="evenodd" clip-rule="evenodd" d="M63.6339 13.252C63.1686 15.5565 63.1686 18.1332 63.9227 20.5018C62.9119 19.9257 61.869 19.3815 60.7939 18.8854C61.6925 17.0769 62.6391 15.1084 63.6178 13.252" fill="#ACACE6"/>
<path fill-rule="evenodd" clip-rule="evenodd" d="M32.6351 14.4678L33.8545 16.6923C27.6451 18.8209 24.8212 20.7734 19.5425 24.5984C23.7302 19.045 26.1851 16.9964 32.6351 14.4678Z" fill="white"/>
<path d="M74.8015 29.0952C76.8392 24.9182 77.8821 19.7488 77.9623 14.9956C78.0425 10.0503 77.0478 5.45714 74.978 2.75244C73.3574 0.59188 71.6246 -0.128306 69.8596 0.0157313C68.2552 0.159768 66.8432 1.072 65.5436 2.28832C61.6607 5.92126 58.917 10.9786 56.3338 15.7158L55.9487 16.5L57.8099 17.4922C60.4573 12.643 63.1208 7.42564 66.9716 3.80871C68.9611 1.95223 71.063 1.02399 73.3414 4.00076C76.791 8.51392 76.7589 19.7488 73.213 27.5748L74.6892 29.3193L74.8015 29.0792V29.0952Z" fill="white"/>
</g>
<defs>
<clipPath id="clip0_213_595">
<rect width="286" height="93" fill="white"/>
</clipPath>
</defs>
</svg>
