<svg width="46" height="45" viewBox="0 0 46 45" fill="none" xmlns="http://www.w3.org/2000/svg">
<path d="M34.4615 35.147C36.823 35.3399 39.1987 35.0357 41.4355 34.254C41.5208 33.2015 41.3065 32.1462 40.8172 31.2104C40.3279 30.2746 39.5836 29.4965 38.6705 28.966C37.7574 28.4356 36.7128 28.1745 35.6575 28.2129C34.6022 28.2514 33.5793 28.5878 32.7072 29.1834M34.4596 35.1451L34.4615 35.2029C34.4615 35.6223 34.4391 36.0362 34.3925 36.4444C31.0096 38.3853 27.1763 39.4036 23.2762 39.3973C19.2309 39.3973 15.4335 38.3236 12.16 36.4444C12.1121 36.013 12.089 35.5792 12.091 35.1451M34.4615 35.1451C34.4542 33.0322 33.8458 30.9651 32.7072 29.1852M32.7072 29.1852C31.6967 27.6003 30.3026 26.2958 28.6542 25.3925C27.0057 24.4893 25.156 24.0164 23.2762 24.0177C21.3968 24.0167 19.5475 24.4897 17.8994 25.393C16.2512 26.2962 14.8575 27.6005 13.8471 29.1852M13.8471 29.1852C12.975 28.5903 11.9524 28.2543 10.8974 28.2161C9.84239 28.1779 8.79814 28.4391 7.88536 28.9695C6.97259 29.4999 6.22857 30.2778 5.73934 31.2133C5.25011 32.1488 5.03564 33.2036 5.12074 34.2559C7.35575 35.042 9.73209 35.3451 12.0929 35.1451M13.8452 29.1852C12.7074 30.9653 12.0996 33.0324 12.0929 35.1451M28.8688 12.8324C28.8688 14.3157 28.2796 15.7382 27.2308 16.787C26.182 17.8358 24.7595 18.425 23.2762 18.425C21.793 18.425 20.3705 17.8358 19.3217 16.787C18.2728 15.7382 17.6836 14.3157 17.6836 12.8324C17.6836 11.3492 18.2728 9.92667 19.3217 8.87785C20.3705 7.82903 21.793 7.23981 23.2762 7.23981C24.7595 7.23981 26.182 7.82903 27.2308 8.87785C28.2796 9.92667 28.8688 11.3492 28.8688 12.8324V12.8324ZM40.0541 18.425C40.0541 18.9759 39.9456 19.5213 39.7348 20.0302C39.524 20.5391 39.215 21.0015 38.8255 21.391C38.4361 21.7805 37.9737 22.0894 37.4648 22.3002C36.9559 22.511 36.4104 22.6195 35.8596 22.6195C35.3088 22.6195 34.7634 22.511 34.2545 22.3002C33.7456 22.0894 33.2832 21.7805 32.8937 21.391C32.5042 21.0015 32.1952 20.5391 31.9844 20.0302C31.7736 19.5213 31.6652 18.9759 31.6652 18.425C31.6652 17.3126 32.1071 16.2457 32.8937 15.4591C33.6803 14.6725 34.7472 14.2306 35.8596 14.2306C36.9721 14.2306 38.0389 14.6725 38.8255 15.4591C39.6122 16.2457 40.0541 17.3126 40.0541 18.425V18.425ZM14.8873 18.425C14.8873 18.9759 14.7788 19.5213 14.568 20.0302C14.3572 20.5391 14.0483 21.0015 13.6588 21.391C13.2693 21.7805 12.8069 22.0894 12.298 22.3002C11.7891 22.511 11.2437 22.6195 10.6929 22.6195C10.142 22.6195 9.5966 22.511 9.0877 22.3002C8.5788 22.0894 8.11641 21.7805 7.72692 21.391C7.33743 21.0015 7.02847 20.5391 6.81767 20.0302C6.60688 19.5213 6.49839 18.9759 6.49839 18.425C6.49839 17.3126 6.9403 16.2457 7.72692 15.4591C8.51353 14.6725 9.58041 14.2306 10.6929 14.2306C11.8053 14.2306 12.8722 14.6725 13.6588 15.4591C14.4454 16.2457 14.8873 17.3126 14.8873 18.425V18.425Z" stroke="white" stroke-width="1.65707" stroke-linecap="round" stroke-linejoin="round"/>
</svg>
