<svg width="46" height="46" viewBox="0 0 46 46" fill="none" xmlns="http://www.w3.org/2000/svg">
<path d="M41.038 13.0039C41.0381 14.166 40.7968 15.3154 40.3294 16.3793C39.8619 17.4432 39.1785 18.3983 38.3225 19.1842C37.4665 19.9701 36.4566 20.5696 35.3567 20.9447C34.2569 21.3197 33.0911 21.4622 31.9332 21.363C29.9274 21.1934 27.7127 21.4954 26.4338 23.0483L13.1011 39.237C12.6805 39.7497 12.1572 40.1686 11.5649 40.4669C10.9727 40.7651 10.3245 40.936 9.66221 40.9686C8.9999 41.0012 8.3381 40.8948 7.71941 40.6561C7.10072 40.4175 6.53884 40.052 6.06995 39.5831C5.60106 39.1142 5.23554 38.5523 4.99692 37.9336C4.75829 37.3149 4.65186 36.6531 4.68445 35.9908C4.71705 35.3285 4.88796 34.6804 5.18619 34.0881C5.48441 33.4958 5.90334 32.9726 6.41601 32.552L22.6048 19.2192C24.1577 17.9404 24.4597 15.7257 24.29 13.7198C24.1649 12.2623 24.423 10.7974 25.0388 9.47052C25.6547 8.14361 26.6068 7.0008 27.8007 6.1555C28.9946 5.3102 30.3888 4.79179 31.8449 4.65171C33.301 4.51163 34.7685 4.75476 36.1016 5.35697L29.9945 11.4641C30.2307 12.4859 30.7492 13.4208 31.4907 14.1623C32.2323 14.9039 33.1672 15.4223 34.1889 15.6586L40.2961 9.55143C40.7733 10.6047 41.038 11.7736 41.038 13.0039Z" stroke="white" stroke-width="1.65707" stroke-linecap="round" stroke-linejoin="round"/>
<path d="M9.56445 36.0735H9.57937V36.0884H9.56445V36.0735Z" stroke="white" stroke-width="1.2428" stroke-linecap="round" stroke-linejoin="round"/>
</svg>
