<svg width="54" height="54" viewBox="0 0 54 54" fill="none" xmlns="http://www.w3.org/2000/svg">
<path d="M46.7473 16.8486L41.776 13.9476M46.7473 16.8486V21.8198M46.7473 16.8486L41.776 19.7496M6.97754 16.8486L11.9488 13.9476M6.97754 16.8486L11.9488 19.7496M6.97754 16.8486V21.8198M26.8624 28.4481L31.8336 25.5471M26.8624 28.4481L21.8912 25.5471M26.8624 28.4481V33.4193M26.8624 48.3329L31.8336 45.432M26.8624 48.3329V43.3617M26.8624 48.3329L21.8912 45.432M21.8912 8.14785L26.8624 5.24908L31.8336 8.15006M46.7473 31.7622V36.7334L41.776 39.6344M11.9488 39.6344L6.97754 36.7334V31.7622" stroke="white" stroke-width="1.65707" stroke-linecap="round" stroke-linejoin="round"/>
</svg>
