<svg width="26" height="26" viewBox="0 0 26 26" fill="none" xmlns="http://www.w3.org/2000/svg">
<path d="M13.0909 9.41647C12.1141 9.41647 11.1772 9.80452 10.4865 10.4953C9.79573 11.186 9.40768 12.1228 9.40768 13.0997C9.40768 14.0766 9.79573 15.0134 10.4865 15.7041C11.1772 16.3949 12.1141 16.7829 13.0909 16.7829C14.0678 16.7829 15.0046 16.3949 15.6953 15.7041C16.3861 15.0134 16.7741 14.0766 16.7741 13.0997C16.7741 12.1228 16.3861 11.186 15.6953 10.4953C15.0046 9.80452 14.0678 9.41647 13.0909 9.41647ZM13.0909 6.96098C14.719 6.96098 16.2804 7.60774 17.4316 8.75897C18.5829 9.9102 19.2296 11.4716 19.2296 13.0997C19.2296 14.7278 18.5829 16.2892 17.4316 17.4404C16.2804 18.5917 14.719 19.2384 13.0909 19.2384C11.4628 19.2384 9.90141 18.5917 8.75018 17.4404C7.59895 16.2892 6.95219 14.7278 6.95219 13.0997C6.95219 11.4716 7.59895 9.9102 8.75018 8.75897C9.90141 7.60774 11.4628 6.96098 13.0909 6.96098ZM21.0712 6.65405C21.0712 7.06107 20.9096 7.45142 20.6217 7.73923C20.3339 8.02704 19.9436 8.18873 19.5366 8.18873C19.1295 8.18873 18.7392 8.02704 18.4514 7.73923C18.1636 7.45142 18.0019 7.06107 18.0019 6.65405C18.0019 6.24702 18.1636 5.85667 18.4514 5.56886C18.7392 5.28106 19.1295 5.11937 19.5366 5.11937C19.9436 5.11937 20.3339 5.28106 20.6217 5.56886C20.9096 5.85667 21.0712 6.24702 21.0712 6.65405ZM13.0909 3.27775C10.0535 3.27775 9.55747 3.28635 8.14433 3.34896C7.18178 3.39439 6.53599 3.5233 5.93685 3.75657C5.40401 3.96283 5.01973 4.20961 4.61089 4.61968C4.22661 4.99094 3.93115 5.44421 3.74656 5.94564C3.51328 6.54723 3.38437 7.1918 3.34017 8.15312C3.27633 9.50855 3.26896 9.98246 3.26896 13.0997C3.26896 16.1371 3.27756 16.6331 3.34017 18.0463C3.3856 19.0076 3.51451 19.6546 3.74656 20.2525C3.95527 20.7866 4.20082 21.1709 4.60843 21.5785C5.02218 21.991 5.40646 22.2378 5.93439 22.4416C6.5409 22.6761 7.18669 22.8062 8.14433 22.8504C9.49976 22.9143 9.97367 22.9216 13.0909 22.9216C16.1283 22.9216 16.6244 22.9131 18.0375 22.8504C18.9976 22.805 19.6446 22.6761 20.2437 22.4441C20.7754 22.2366 21.1621 21.9898 21.5697 21.5822C21.9835 21.1684 22.2302 20.7841 22.434 20.2562C22.6673 19.6509 22.7974 19.0039 22.8416 18.0463C22.9055 16.6908 22.9129 16.2169 22.9129 13.0997C22.9129 10.0623 22.9043 9.56625 22.8416 8.15312C22.7962 7.19303 22.6673 6.54478 22.434 5.94564C22.249 5.44472 21.9541 4.99163 21.5709 4.61968C21.1998 4.2352 20.7465 3.93971 20.245 3.75534C19.6434 3.52207 18.9976 3.39316 18.0375 3.34896C16.6821 3.28512 16.2082 3.27775 13.0909 3.27775ZM13.0909 0.822266C16.4267 0.822266 16.8429 0.834543 18.1517 0.89593C19.4592 0.957317 20.3493 1.16235 21.1326 1.46683C21.9429 1.77868 22.6256 2.20102 23.3082 2.88242C23.9325 3.49616 24.4156 4.23857 24.7238 5.05798C25.027 5.84005 25.2333 6.73139 25.2947 8.03894C25.3524 9.34772 25.3683 9.76392 25.3683 13.0997C25.3683 16.4355 25.3561 16.8517 25.2947 18.1605C25.2333 19.468 25.027 20.3581 24.7238 21.1414C24.4164 21.9613 23.9333 22.7039 23.3082 23.317C22.6943 23.9411 21.9519 24.4241 21.1326 24.7326C20.3506 25.0358 19.4592 25.2421 18.1517 25.3035C16.8429 25.3612 16.4267 25.3771 13.0909 25.3771C9.75513 25.3771 9.33893 25.3649 8.03015 25.3035C6.72261 25.2421 5.83249 25.0358 5.04919 24.7326C4.22946 24.425 3.48692 23.9418 2.87363 23.317C2.24921 22.7033 1.76612 21.9609 1.45804 21.1414C1.15356 20.3593 0.948528 19.468 0.887141 18.1605C0.829437 16.8517 0.813477 16.4355 0.813477 13.0997C0.813477 9.76392 0.825754 9.34772 0.887141 8.03894C0.948528 6.73017 1.15356 5.84128 1.45804 5.05798C1.76527 4.23807 2.24847 3.49546 2.87363 2.88242C3.4871 2.25778 4.22958 1.77466 5.04919 1.46683C5.83249 1.16235 6.72138 0.957317 8.03015 0.89593C9.33893 0.838226 9.75513 0.822266 13.0909 0.822266Z" fill="black"/>
</svg>
