<svg width="26" height="21" viewBox="0 0 26 21" fill="none" xmlns="http://www.w3.org/2000/svg">
<path d="M18.0034 2.73441C17.0703 2.73425 16.1744 3.10043 15.5085 3.75413C14.8426 4.40784 14.46 5.29683 14.443 6.2298L14.4086 8.16349C14.4066 8.26731 14.3826 8.36954 14.3383 8.46346C14.294 8.55738 14.2304 8.64087 14.1515 8.70846C14.0727 8.77605 13.9805 8.82621 13.8809 8.85565C13.7813 8.88508 13.6766 8.89313 13.5737 8.87927L11.6572 8.61898C9.13542 8.27522 6.71922 7.11377 4.40124 5.18253C3.66705 9.24636 5.10106 12.0616 8.5547 14.2335L10.6996 15.5815C10.8015 15.6456 10.8861 15.7336 10.9462 15.8379C11.0062 15.9423 11.0397 16.0597 11.0438 16.18C11.0479 16.3003 11.0225 16.4198 10.9698 16.528C10.917 16.6362 10.8386 16.7298 10.7413 16.8007L8.78674 18.2285C9.94942 18.301 11.0532 18.2494 11.9691 18.0677C17.7615 16.9112 21.613 12.5527 21.613 5.36301C21.613 4.77615 20.3705 2.73441 18.0034 2.73441ZM11.9875 6.18437C12.0089 5.00089 12.379 3.85002 13.0514 2.87587C13.7238 1.90172 14.6686 1.14758 15.7676 0.707856C16.8666 0.268136 18.0708 0.162385 19.2296 0.403843C20.3884 0.6453 21.4502 1.22324 22.2821 2.06529C23.155 2.05915 23.8978 2.28014 25.5589 1.2734C25.1477 3.28689 24.9451 4.16105 24.0685 5.36301C24.0685 14.7454 18.3018 19.3077 12.4503 20.4753C8.43806 21.2758 2.60383 19.9609 0.931641 18.215C1.78369 18.1487 5.24593 17.7767 7.24715 16.312C5.5541 15.196 -1.18499 11.2304 3.24348 0.568671C5.32205 2.99592 7.43009 4.64846 9.56636 5.52507C10.9881 6.10825 11.3368 6.09597 11.9887 6.1856L11.9875 6.18437Z" fill="black"/>
</svg>
